<?xml version="1.0" encoding="utf-8"?>
<!-- Generator: Adobe Illustrator 27.3.1, SVG Export Plug-In . SVG Version: 6.00 Build 0)  -->
<svg version="1.1" id="svg5" xmlns:svg="http://www.w3.org/2000/svg"
	 xmlns="http://www.w3.org/2000/svg" xmlns:xlink="http://www.w3.org/1999/xlink" x="0px" y="0px" viewBox="0 0 6419.1 6422.7"
	 style="enable-background:new 0 0 6419.1 6422.7;" xml:space="preserve">
<style type="text/css">
	.st0{fill:#019681;}
</style>
<g id="layer1" transform="translate(3000.9654,1316.3219)">
	<path id="path471" class="st0" d="M965.4-1316.1c-310.2-6.7-623.1,131.6-829,417.1C-7.6-699.2-36.1-589.6-49.1-185.5
		C-54.8-8.9-63,139.1-67.4,143.5c-4.4,4.4-463.4,9.5-1020,11.4c-991.8,3.3-1014.1,3.8-1119.1,26.6
		c-1005.4,218.2-1076.7,1605.1-98.9,1924.2c145.4,47.5,192.7,49.4,1239.7,49.4c547.1,0,997.2,4.2,1000.4,9.3
		c14.7,23.9,11.6,923.3-3.2,932.5c-8.2,5-138.3,11.5-289.2,14.3c-514.1,9.6-735.2,101.6-976.2,406
		c-292.4,369.3-223.3,1076,130.3,1332.6c15.5,11.3,54.2,40.3,85.9,64.5c211.9,161.8,541.3,231.3,807,170.2
		c172.9-39.8,416.1-182,516.1-301.9c206-247,244.5-371.4,264.5-854.9c12-289.2,12-289.2,1045.5-295.4
		c713.7-4.3,1049.2-9.9,1084-18.3c139.5-33.6,188.9-49.3,248.6-79.2c758-379.7,760.8-1426.7,4.7-1794.8
		c-217.1-105.7-153.5-100.8-1335.4-104.1c-575.5-1.6-1034.9-7-1038.9-12.3c-4-5.2-4.9-219.1-1.9-475.3
		c5.4-465.9,5.4-465.9,299.9-472.2c338-7.2,415.8-19,573-87c554.1-239.8,763.9-949.7,429.5-1452.8
		C1583.3-1157.9,1275.7-1309.4,965.4-1316.1L965.4-1316.1z M974.2-794.7c118.7,7.1,236.8,59.8,328.1,163.4
		c215.5,244.4,124.2,619-183.2,751.8C1058.5,146.7,494,172,480,149.2c-19.8-32.1-6.2-562.4,15.9-622.3
		C576.6-691.4,776.3-806.5,974.2-794.7z M-1025.4,677.9c484.9-0.7,955.9,1.5,959.5,7.4c11.9,19.2,0.5,934.4,0.5,934.4
		c-2.8,2.8-29.2,5.2-74.1,7.4c-357.1,0-1894.1,13.6-1975.9-8.6v0c-509.4-138.2-472.2-878.3,46.8-930.2
		C-2009.2,682.2-1510.3,678.6-1025.4,677.9L-1025.4,677.9z M1483.3,2160.4c828.7,0,1010.7,2.6,1055,15.1
		c457.8,128.9,481.4,727.4,35.7,904.4c-75.6,30-2089.4,47-2099.2,17.7c-2-5.9-1.2-219.1,1.8-473.9c2.4-204.1,2.7-340.6,2.7-455.3
		C895,2165.1,1164.6,2160.6,1483.3,2160.4z M-263.7,3629.2c101.8-0.1,183.8,6,197.7,19.9c24.9,24.9,19.8,492-6.3,580.1
		c-60.6,204.6-208.7,323.6-448.1,360c-15.2,2.3-61.3-3.7-102.5-13.4c-462-108.6-520.4-698.6-89.4-903.4
		C-657.7,3646.4-433.3,3629.3-263.7,3629.2L-263.7,3629.2z"/>
</g>
</svg>
